<svg xmlns="http://www.w3.org/2000/svg" xmlns:xlink="http://www.w3.org/1999/xlink" version="1.1" x="0px" y="0px" viewBox="0 0 100 100" enable-background="new 0 0 100 100" xml:space="preserve"><path d="M80.3,42.7H59c-4.2-5.9-14.2-20-17.1-24c-3.6-5.1-5-8.1-8.7-8.7c-3.7-0.6-4.1,2-3.9,3.5c0.2,1.3,9.4,20.5,13.7,29.2H21.3  l-6.3-8.5c-0.8-1.1-2.5-0.5-2.5,0.8v31.9c0,1.3,1.7,1.9,2.5,0.8l6.3-8.5h21.7C38.6,67.9,29.4,87,29.2,88.4c-0.2,1.5,0.2,4.1,3.9,3.5  c3.7-0.6,5.1-3.6,8.7-8.7c2.8-4,12.9-18.1,17.1-24h21.4c4.6,0,8.3-3.7,8.3-8.3C88.6,46.4,84.9,42.7,80.3,42.7z"></path></svg>